<mxfile host="app.diagrams.net" modified="2023-05-26T04:40:06.815Z" agent="Mozilla/5.0 (Macintosh; Intel Mac OS X 10_15_7) AppleWebKit/605.1.15 (KHTML, like Gecko) Version/16.5 Safari/605.1.15" etag="4p1YpqFoWas-LgENukIf" version="21.3.2" type="github">
  <diagram name="第 1 页" id="sGRk3CPGDbOVLM2Id_Ff">
    <mxGraphModel dx="1120" dy="608" grid="1" gridSize="10" guides="1" tooltips="1" connect="1" arrows="1" fold="1" page="1" pageScale="1" pageWidth="827" pageHeight="1169" math="0" shadow="0">
      <root>
        <mxCell id="0" />
        <mxCell id="1" parent="0" />
        <mxCell id="N8aip8-sYHRljh5Bt7w2-1" value="encoder" style="shape=trapezoid;perimeter=trapezoidPerimeter;whiteSpace=wrap;html=1;fixedSize=1;" vertex="1" parent="1">
          <mxGeometry x="140" y="555" width="120" height="60" as="geometry" />
        </mxCell>
        <mxCell id="N8aip8-sYHRljh5Bt7w2-3" value="decoder" style="shape=trapezoid;perimeter=trapezoidPerimeter;whiteSpace=wrap;html=1;fixedSize=1;flipV=1;" vertex="1" parent="1">
          <mxGeometry x="140" y="370" width="120" height="60" as="geometry" />
        </mxCell>
        <mxCell id="N8aip8-sYHRljh5Bt7w2-4" value="quantinizer" style="rounded=1;whiteSpace=wrap;html=1;" vertex="1" parent="1">
          <mxGeometry x="155" y="480" width="90" height="50" as="geometry" />
        </mxCell>
        <mxCell id="N8aip8-sYHRljh5Bt7w2-5" value="" style="ellipse;whiteSpace=wrap;html=1;aspect=fixed;" vertex="1" parent="1">
          <mxGeometry x="40" y="630" width="20" height="20" as="geometry" />
        </mxCell>
        <mxCell id="N8aip8-sYHRljh5Bt7w2-6" value="" style="ellipse;whiteSpace=wrap;html=1;aspect=fixed;" vertex="1" parent="1">
          <mxGeometry x="70" y="630" width="20" height="20" as="geometry" />
        </mxCell>
        <mxCell id="N8aip8-sYHRljh5Bt7w2-7" value="" style="ellipse;whiteSpace=wrap;html=1;aspect=fixed;" vertex="1" parent="1">
          <mxGeometry x="100" y="630" width="20" height="20" as="geometry" />
        </mxCell>
        <mxCell id="N8aip8-sYHRljh5Bt7w2-8" value="" style="ellipse;whiteSpace=wrap;html=1;aspect=fixed;" vertex="1" parent="1">
          <mxGeometry x="130" y="630" width="20" height="20" as="geometry" />
        </mxCell>
        <mxCell id="N8aip8-sYHRljh5Bt7w2-13" value="" style="ellipse;whiteSpace=wrap;html=1;aspect=fixed;" vertex="1" parent="1">
          <mxGeometry x="160" y="630" width="20" height="20" as="geometry" />
        </mxCell>
        <mxCell id="N8aip8-sYHRljh5Bt7w2-14" value="" style="ellipse;whiteSpace=wrap;html=1;aspect=fixed;" vertex="1" parent="1">
          <mxGeometry x="190" y="630" width="20" height="20" as="geometry" />
        </mxCell>
        <mxCell id="N8aip8-sYHRljh5Bt7w2-15" value="" style="ellipse;whiteSpace=wrap;html=1;aspect=fixed;" vertex="1" parent="1">
          <mxGeometry x="220" y="630" width="20" height="20" as="geometry" />
        </mxCell>
        <mxCell id="N8aip8-sYHRljh5Bt7w2-16" value="" style="ellipse;whiteSpace=wrap;html=1;aspect=fixed;" vertex="1" parent="1">
          <mxGeometry x="250" y="630" width="20" height="20" as="geometry" />
        </mxCell>
        <mxCell id="N8aip8-sYHRljh5Bt7w2-17" value="" style="rounded=1;whiteSpace=wrap;html=1;fillColor=none;dashed=1;" vertex="1" parent="1">
          <mxGeometry x="30" y="620" width="100" height="40" as="geometry" />
        </mxCell>
        <mxCell id="N8aip8-sYHRljh5Bt7w2-18" value="" style="ellipse;whiteSpace=wrap;html=1;aspect=fixed;" vertex="1" parent="1">
          <mxGeometry x="130" y="330" width="20" height="20" as="geometry" />
        </mxCell>
        <mxCell id="N8aip8-sYHRljh5Bt7w2-19" value="" style="ellipse;whiteSpace=wrap;html=1;aspect=fixed;" vertex="1" parent="1">
          <mxGeometry x="160" y="330" width="20" height="20" as="geometry" />
        </mxCell>
        <mxCell id="N8aip8-sYHRljh5Bt7w2-20" value="" style="ellipse;whiteSpace=wrap;html=1;aspect=fixed;" vertex="1" parent="1">
          <mxGeometry x="190" y="330" width="20" height="20" as="geometry" />
        </mxCell>
        <mxCell id="N8aip8-sYHRljh5Bt7w2-21" value="" style="ellipse;whiteSpace=wrap;html=1;aspect=fixed;" vertex="1" parent="1">
          <mxGeometry x="220" y="330" width="20" height="20" as="geometry" />
        </mxCell>
        <mxCell id="N8aip8-sYHRljh5Bt7w2-22" value="" style="ellipse;whiteSpace=wrap;html=1;aspect=fixed;" vertex="1" parent="1">
          <mxGeometry x="250" y="330" width="20" height="20" as="geometry" />
        </mxCell>
        <mxCell id="N8aip8-sYHRljh5Bt7w2-23" value="" style="endArrow=classic;html=1;rounded=0;exitX=0.5;exitY=0;exitDx=0;exitDy=0;entryX=0;entryY=0.5;entryDx=0;entryDy=0;" edge="1" parent="1" source="N8aip8-sYHRljh5Bt7w2-17" target="N8aip8-sYHRljh5Bt7w2-3">
          <mxGeometry width="50" height="50" relative="1" as="geometry">
            <mxPoint x="390" y="530" as="sourcePoint" />
            <mxPoint x="440" y="480" as="targetPoint" />
            <Array as="points">
              <mxPoint x="80" y="400" />
            </Array>
          </mxGeometry>
        </mxCell>
        <mxCell id="N8aip8-sYHRljh5Bt7w2-24" value="Condition" style="edgeLabel;html=1;align=center;verticalAlign=middle;resizable=0;points=[];" vertex="1" connectable="0" parent="N8aip8-sYHRljh5Bt7w2-23">
          <mxGeometry x="0.775" y="-2" relative="1" as="geometry">
            <mxPoint x="-4" y="-12" as="offset" />
          </mxGeometry>
        </mxCell>
        <mxCell id="N8aip8-sYHRljh5Bt7w2-25" value="" style="ellipse;whiteSpace=wrap;html=1;aspect=fixed;" vertex="1" parent="1">
          <mxGeometry x="160" y="440" width="20" height="20" as="geometry" />
        </mxCell>
        <mxCell id="N8aip8-sYHRljh5Bt7w2-26" value="" style="ellipse;whiteSpace=wrap;html=1;aspect=fixed;" vertex="1" parent="1">
          <mxGeometry x="190" y="440" width="20" height="20" as="geometry" />
        </mxCell>
        <mxCell id="N8aip8-sYHRljh5Bt7w2-27" value="" style="ellipse;whiteSpace=wrap;html=1;aspect=fixed;" vertex="1" parent="1">
          <mxGeometry x="220" y="440" width="20" height="20" as="geometry" />
        </mxCell>
        <mxCell id="N8aip8-sYHRljh5Bt7w2-28" value="" style="endArrow=classic;html=1;rounded=0;exitX=1;exitY=0.5;exitDx=0;exitDy=0;" edge="1" parent="1" source="N8aip8-sYHRljh5Bt7w2-27">
          <mxGeometry width="50" height="50" relative="1" as="geometry">
            <mxPoint x="390" y="530" as="sourcePoint" />
            <mxPoint x="350" y="450" as="targetPoint" />
          </mxGeometry>
        </mxCell>
        <mxCell id="N8aip8-sYHRljh5Bt7w2-29" value="Compressed &lt;br&gt;Sementic code" style="edgeLabel;html=1;align=center;verticalAlign=middle;resizable=0;points=[];" vertex="1" connectable="0" parent="N8aip8-sYHRljh5Bt7w2-28">
          <mxGeometry x="-0.0222" y="-2" relative="1" as="geometry">
            <mxPoint x="6" y="-22" as="offset" />
          </mxGeometry>
        </mxCell>
        <mxCell id="N8aip8-sYHRljh5Bt7w2-30" value="VQ-VAE where input and output are speech codec" style="rounded=1;whiteSpace=wrap;html=1;fillColor=none;dashed=1;labelPosition=center;verticalLabelPosition=bottom;align=center;verticalAlign=top;" vertex="1" parent="1">
          <mxGeometry x="10" y="310" width="300" height="370" as="geometry" />
        </mxCell>
        <mxCell id="N8aip8-sYHRljh5Bt7w2-31" value="LLM" style="rounded=0;whiteSpace=wrap;html=1;" vertex="1" parent="1">
          <mxGeometry x="360" y="420" width="120" height="60" as="geometry" />
        </mxCell>
        <mxCell id="N8aip8-sYHRljh5Bt7w2-32" value="" style="endArrow=classic;html=1;rounded=0;exitX=1;exitY=0.5;exitDx=0;exitDy=0;" edge="1" parent="1" source="N8aip8-sYHRljh5Bt7w2-31">
          <mxGeometry width="50" height="50" relative="1" as="geometry">
            <mxPoint x="390" y="530" as="sourcePoint" />
            <mxPoint x="540" y="450" as="targetPoint" />
          </mxGeometry>
        </mxCell>
        <mxCell id="N8aip8-sYHRljh5Bt7w2-33" value="Stage 1: Autogressive and ASR pretrain&lt;br&gt;Stage 2: Other task instruct finetune&amp;nbsp;" style="text;html=1;strokeColor=none;fillColor=none;align=left;verticalAlign=middle;whiteSpace=wrap;rounded=0;" vertex="1" parent="1">
          <mxGeometry x="550" y="435" width="240" height="30" as="geometry" />
        </mxCell>
      </root>
    </mxGraphModel>
  </diagram>
</mxfile>
